<svg width="7" height="8" viewBox="0 0 7 8" fill="none" xmlns="http://www.w3.org/2000/svg">
<path d="M1.56995 2.03565C1.96297 1.54395 2.3339 1.0965 2.4581 0.54579C2.4581 0.54579 2.4581 0.54579 2.4581 0.534317C2.3306 0.405519 2.18447 0.295115 2.02424 0.206515C2.0087 0.196179 1.9906 0.189918 1.97178 0.188346C1.95296 0.186775 1.93403 0.189948 1.91687 0.197554C1.89971 0.205159 1.88493 0.216936 1.87392 0.231726C1.86291 0.246516 1.85608 0.26381 1.85411 0.28191C1.83572 0.385858 1.81127 0.488731 1.78092 0.590043C1.72769 0.758142 1.64483 0.916157 1.53593 1.05716C1.33177 1.32104 1.07997 1.5587 0.855392 1.80947C0.321166 2.4077 -0.0888501 3.1469 0.0166341 3.95984C0.0477602 4.2027 0.125671 4.43782 0.246334 4.65314C0.376535 3.8941 0.690697 3.17534 1.16335 2.55521C1.29265 2.3782 1.43385 2.20447 1.56995 2.03565Z" fill="#C04551"/>
<path d="M6.32867 2.33067C6.32425 2.32929 6.31947 2.32929 6.31505 2.33067C6.31608 2.44127 6.30177 2.55152 6.27251 2.65847C6.23648 2.76025 6.1785 2.85353 6.10238 2.93219C6.03881 3.00332 5.96064 3.06102 5.8728 3.10164C5.78496 3.14226 5.68935 3.16492 5.59197 3.1682C5.43946 3.16668 5.29243 3.11328 5.17685 3.01741C4.82467 2.7355 4.7549 2.25364 4.65282 1.85044C4.54876 1.4444 4.34856 1.06709 4.06785 0.748045C3.78714 0.429002 3.43356 0.176896 3.03482 0.0114731C3.01833 0.00396382 3.00031 4.66994e-05 2.98207 1.19787e-07C2.94893 -4.41357e-05 2.91704 0.0121758 2.89297 0.0341365C2.86891 0.0560973 2.85451 0.0861217 2.85277 0.118009C2.83972 0.286359 2.81645 0.453825 2.78303 0.619545C2.59588 1.45544 1.93236 2.07335 1.43556 2.75026C0.867311 3.52878 0.46918 4.47941 0.571261 5.44642C0.697162 6.64126 1.57506 7.51485 2.64861 7.90494C2.44901 7.7655 2.28229 7.58695 2.15943 7.38102C2.03657 7.17509 1.96034 6.94644 1.93575 6.7101C1.9035 6.14103 2.07927 5.57906 2.43254 5.1219C2.71496 4.72362 3.09778 4.35976 3.20666 3.86806C3.22615 3.77061 3.23922 3.67208 3.24579 3.57304C3.24611 3.56116 3.24949 3.54955 3.25559 3.53923C3.26169 3.5289 3.27033 3.52019 3.28076 3.51387C3.2912 3.50754 3.30311 3.5038 3.31541 3.50297C3.32771 3.50214 3.34004 3.50425 3.35129 3.50912C3.58115 3.60945 3.78397 3.75932 3.94415 3.94716C4.10433 4.13501 4.21758 4.3558 4.27512 4.5925C4.33297 4.82852 4.3738 5.11371 4.57626 5.27925C4.85529 5.50707 5.22445 5.26286 5.22615 4.93342V4.899L5.24148 4.87769C5.27926 4.93546 5.31282 4.9957 5.34188 5.05798V5.06617C5.51072 5.41155 5.60597 5.78603 5.62204 6.16748C5.63811 6.54892 5.57469 6.92961 5.43546 7.28703C5.37015 7.44133 5.28063 7.58505 5.17004 7.71317C5.07477 7.82226 4.9649 7.9187 4.84335 8C5.37289 7.84922 5.84568 7.55374 6.20443 7.14935C6.39672 6.93212 6.55339 6.68781 6.66894 6.42491C6.77115 6.19069 6.84976 5.94754 6.90371 5.69883C6.95785 5.44734 6.98917 5.19178 6.99729 4.93505C7.00605 4.67664 6.99354 4.41795 6.95987 4.16144C6.92691 3.90598 6.87341 3.65336 6.79991 3.40586C6.72815 3.16196 6.63599 2.92407 6.52431 2.69453C6.49369 2.63389 6.46135 2.56997 6.42902 2.50932L6.37627 2.41262C6.36681 2.38227 6.35059 2.3543 6.32867 2.33067Z" fill="#C04551"/>
</svg>
