<svg width="27" height="27" viewBox="0 0 27 27" fill="none" xmlns="http://www.w3.org/2000/svg">
<path d="M6.02515 0.84314C5.03024 0.84313 4.09839 1.34051 3.54197 2.16855C2.21306 4.14617 3.61566 6.79482 5.99184 6.79483L23.3115 6.79494C24.9768 6.79495 26.3255 5.42791 26.3032 3.76258C26.2815 2.14143 24.966 0.843322 23.3449 0.843306L6.02515 0.84314Z" fill="white"/>
<rect width="5.95216" height="22.0012" rx="2.97608" transform="matrix(0.0134082 0.99991 0.999819 -0.0190008 4.39453 10.7839)" fill="white"/>
<path d="M6.96885 19.8885C5.12211 19.8884 3.71215 21.5536 4.01791 23.3735C4.25747 24.7992 5.48874 25.8402 6.93556 25.8402L23.5667 25.8402C25.232 25.8402 26.5807 24.4732 26.5583 22.8079C26.5366 21.1867 25.2211 19.8886 23.6 19.8886L6.96885 19.8885Z" fill="white"/>
</svg>
