<svg width="23" height="23" viewBox="0 0 23 23" fill="none" xmlns="http://www.w3.org/2000/svg">
<circle cx="11.5" cy="11.5" r="11.5" fill="#C04551"/>
<path d="M10.7929 5.66329L15.9956 9.20255C16.3344 9.43317 16.6091 9.73092 16.7982 10.0725C16.9873 10.414 17.0857 10.7902 17.0857 11.1715C17.0857 11.5528 16.9873 11.9289 16.7982 12.2704C16.6091 12.612 16.3344 12.9097 15.9956 13.1403L10.7929 16.6826C10.4631 16.9061 10.0703 17.0427 9.65858 17.0771C9.24686 17.1115 8.83245 17.0423 8.46219 16.8773C8.09193 16.7123 7.78037 16.4581 7.56245 16.1431C7.34453 15.8281 7.22888 15.4649 7.22858 15.0943V7.24862C7.22825 6.87779 7.34356 6.51423 7.56147 6.199C7.77938 5.88377 8.09125 5.62942 8.46186 5.46458C8.83248 5.29973 9.24719 5.23097 9.65907 5.26608C10.0709 5.30119 10.4636 5.43878 10.7929 5.66329Z" fill="white"/>
</svg>
